<?xml version="1.0" encoding="UTF-8" standalone="no"?>
<svg
   width="328.1528mm"
   height="52.597851mm"
   viewBox="0 0 328.1528 52.597851"
   version="1.1"
   id="svg8"
   inkscape:version="1.2 (dc2aedaf03, 2022-05-15)"
   sodipodi:docname="fullNameAndPickLogo.svg"
   inkscape:export-filename="fullNameAndPickLogoTest.png"
   inkscape:export-xdpi="23.220886"
   inkscape:export-ydpi="23.220886"
   xmlns:inkscape="http://www.inkscape.org/namespaces/inkscape"
   xmlns:sodipodi="http://sodipodi.sourceforge.net/DTD/sodipodi-0.dtd"
   xmlns:xlink="http://www.w3.org/1999/xlink"
   xmlns="http://www.w3.org/2000/svg"
   xmlns:svg="http://www.w3.org/2000/svg"
   xmlns:rdf="http://www.w3.org/1999/02/22-rdf-syntax-ns#"
   xmlns:cc="http://creativecommons.org/ns#"
   xmlns:dc="http://purl.org/dc/elements/1.1/">
  <defs
     id="defs2">
    <linearGradient
       inkscape:collect="always"
       id="linearGradient1024">
      <stop
         style="stop-color:#f471b5;stop-opacity:1;"
         offset="0"
         id="stop1020" />
      <stop
         style="stop-color:#ec4699;stop-opacity:1;"
         offset="0.09999999"
         id="stop1115" />
      <stop
         style="stop-color:#db2979;stop-opacity:1;"
         offset="1"
         id="stop1022" />
    </linearGradient>
    <linearGradient
       inkscape:collect="always"
       xlink:href="#linearGradient1024"
       id="linearGradient457"
       gradientUnits="userSpaceOnUse"
       x1="16.089624"
       y1="95.789398"
       x2="330.77277"
       y2="146.67752"
       gradientTransform="translate(1.9240706,-79.544782)" />
    <linearGradient
       inkscape:collect="always"
       xlink:href="#linearGradient1024"
       id="linearGradient459"
       gradientUnits="userSpaceOnUse"
       x1="16.089624"
       y1="95.789398"
       x2="330.77277"
       y2="146.67752"
       gradientTransform="translate(-7.0717631,-79.544797)" />
    <linearGradient
       inkscape:collect="always"
       xlink:href="#linearGradient1024"
       id="linearGradient663"
       gradientUnits="userSpaceOnUse"
       gradientTransform="translate(-7.0717631,-79.544797)"
       x1="16.089624"
       y1="95.789398"
       x2="330.77277"
       y2="146.67752" />
    <linearGradient
       inkscape:collect="always"
       xlink:href="#linearGradient1024"
       id="linearGradient665"
       gradientUnits="userSpaceOnUse"
       gradientTransform="translate(-7.0717631,-79.544797)"
       x1="16.089624"
       y1="95.789398"
       x2="330.77277"
       y2="146.67752" />
    <linearGradient
       inkscape:collect="always"
       xlink:href="#linearGradient1024"
       id="linearGradient667"
       gradientUnits="userSpaceOnUse"
       gradientTransform="translate(-7.0717631,-79.544797)"
       x1="16.089624"
       y1="95.789398"
       x2="330.77277"
       y2="146.67752" />
    <linearGradient
       inkscape:collect="always"
       xlink:href="#linearGradient1024"
       id="linearGradient669"
       gradientUnits="userSpaceOnUse"
       gradientTransform="translate(-7.0717631,-79.544797)"
       x1="16.089624"
       y1="95.789398"
       x2="330.77277"
       y2="146.67752" />
    <linearGradient
       inkscape:collect="always"
       xlink:href="#linearGradient1024"
       id="linearGradient671"
       gradientUnits="userSpaceOnUse"
       gradientTransform="translate(-7.0717631,-79.544797)"
       x1="16.089624"
       y1="95.789398"
       x2="330.77277"
       y2="146.67752" />
    <linearGradient
       inkscape:collect="always"
       xlink:href="#linearGradient1024"
       id="linearGradient673"
       gradientUnits="userSpaceOnUse"
       gradientTransform="translate(-7.0717631,-79.544797)"
       x1="16.089624"
       y1="95.789398"
       x2="330.77277"
       y2="146.67752" />
    <linearGradient
       inkscape:collect="always"
       xlink:href="#linearGradient1024"
       id="linearGradient675"
       gradientUnits="userSpaceOnUse"
       gradientTransform="translate(-7.0717631,-79.544797)"
       x1="16.089624"
       y1="95.789398"
       x2="330.77277"
       y2="146.67752" />
    <linearGradient
       inkscape:collect="always"
       xlink:href="#linearGradient1024"
       id="linearGradient677"
       gradientUnits="userSpaceOnUse"
       gradientTransform="translate(-7.0717631,-79.544797)"
       x1="16.089624"
       y1="95.789398"
       x2="330.77277"
       y2="146.67752" />
    <linearGradient
       inkscape:collect="always"
       xlink:href="#linearGradient1024"
       id="linearGradient679"
       gradientUnits="userSpaceOnUse"
       gradientTransform="translate(-7.0717631,-79.544797)"
       x1="16.089624"
       y1="95.789398"
       x2="330.77277"
       y2="146.67752" />
  </defs>
  <sodipodi:namedview
     id="base"
     pagecolor="#ffffff"
     bordercolor="#666666"
     borderopacity="1.0"
     inkscape:pageopacity="0.0"
     inkscape:pageshadow="2"
     inkscape:zoom="0.50000001"
     inkscape:cx="223"
     inkscape:cy="-87.999999"
     inkscape:document-units="mm"
     inkscape:current-layer="layer1"
     inkscape:document-rotation="0"
     showgrid="false"
     inkscape:window-width="1920"
     inkscape:window-height="1009"
     inkscape:window-x="1912"
     inkscape:window-y="-8"
     inkscape:window-maximized="1"
     showguides="true"
     inkscape:guide-bbox="true"
     inkscape:snap-to-guides="true"
     inkscape:snap-page="false"
     inkscape:snap-bbox="false"
     inkscape:bbox-paths="false"
     inkscape:bbox-nodes="false"
     inkscape:snap-bbox-edge-midpoints="false"
     inkscape:snap-bbox-midpoints="false"
     inkscape:object-paths="true"
     inkscape:snap-intersection-paths="true"
     inkscape:snap-smooth-nodes="true"
     inkscape:snap-nodes="false"
     inkscape:showpageshadow="2"
     inkscape:pagecheckerboard="0"
     inkscape:deskcolor="#d1d1d1" />
  <metadata
     id="metadata5">
    <rdf:RDF>
      <cc:Work
         rdf:about="">
        <dc:format>image/svg+xml</dc:format>
        <dc:type
           rdf:resource="http://purl.org/dc/dcmitype/StillImage" />
      </cc:Work>
    </rdf:RDF>
  </metadata>
  <g
     inkscape:label="Layer 1"
     inkscape:groupmode="layer"
     id="layer1"
     transform="translate(-17.701051,-15.98227)">
    <g
       id="g488">
      <path
         id="path443"
         style="opacity:0.998;fill:url(#linearGradient457);fill-opacity:1;stroke-width:1.03238;stroke-linejoin:round;paint-order:stroke fill markers"
         inkscape:transform-center-y="8.5859056"
         d="M 35.475909,65.818968 C 28.842,57.154539 23.382752,47.863622 19.04139,37.976499 14.950052,28.658788 20.617809,17.872158 30.709652,16.629947 c 6.670263,-0.821047 13.309577,-0.86836 19.916367,-0.102578 10.095305,1.17013 15.256542,11.953535 11.275367,21.325073 -4.264232,10.03784 -9.246492,19.614092 -15.897563,28.117536 -2.788255,3.564804 -7.775914,3.443328 -10.527914,-0.15101 z"
         sodipodi:nodetypes="cccc" />
      <g
         aria-label="Autostrum"
         id="text7417"
         style="font-size:50.8px;line-height:1.25;fill:url(#linearGradient459);stroke-width:0.264583">
        <path
           d="m 100.89631,60.238998 -2.6416,-8.635999 h -13.208 l -2.6416,8.635999 h -8.2804 l 12.8016,-36.423599 h 9.398 l 12.8524,36.423599 z m -7.112,-23.520399 q -0.254,-0.8636 -0.6604,-2.1844 -0.4064,-1.3208 -0.8128,-2.6924 -0.4064,-1.3716 -0.6604,-2.3876 -0.254,1.016 -0.7112,2.54 -0.4064,1.4732 -0.8128,2.8448 -0.3556,1.3208 -0.5588,1.8796 l -2.5908,8.4328 h 9.4488 z"
           style="font-weight:bold;font-family:'Noto Sans';-inkscape-font-specification:'Noto Sans Bold';fill:url(#linearGradient663)"
           id="path578" />
        <path
           d="m 138.58993,32.502199 v 27.736799 h -5.7912 l -1.016,-3.556 h -0.4064 q -1.3208,2.1336 -3.6576,3.0988 -2.286,0.9652 -4.8768,0.9652 -4.4704,0 -7.1628,-2.3876 -2.6924,-2.4384 -2.6924,-7.772399 v -18.0848 h 7.5692 v 16.2052 q 0,2.9464 1.0668,4.4704 1.0668,1.523999 3.4036,1.523999 3.4544,0 4.7244,-2.336799 1.27,-2.3876 1.27,-6.8072 v -13.0556 z"
           style="font-weight:bold;font-family:'Noto Sans';-inkscape-font-specification:'Noto Sans Bold';fill:url(#linearGradient665)"
           id="path580" />
        <path
           d="m 158.19871,54.701798 q 1.27,0 2.4384,-0.253999 1.1684,-0.254 2.3368,-0.6096 v 5.638799 q -1.2192,0.508 -3.048,0.8636 -1.778,0.4064 -3.9116,0.4064 -2.4892,0 -4.4704,-0.8128 -1.9304,-0.8128 -3.0988,-2.794 -1.1176,-2.032 -1.1176,-5.587999 v -13.3604 h -3.6068 v -3.2004 l 4.1656,-2.54 2.1844,-5.842 h 4.826 v 5.8928 h 7.7724 v 5.6896 h -7.7724 v 13.3604 q 0,1.5748 0.9144,2.3876 0.9144,0.761999 2.3876,0.761999 z"
           style="font-weight:bold;font-family:'Noto Sans';-inkscape-font-specification:'Noto Sans Bold';fill:url(#linearGradient667)"
           id="path582" />
        <path
           d="m 193.75872,46.319799 q 0,6.9088 -3.6576,10.667999 -3.6068,3.7592 -9.8552,3.7592 -3.8608,0 -6.9088,-1.6764 -2.9972,-1.6764 -4.7244,-4.876799 -1.7272,-3.2512 -1.7272,-7.874 0,-6.9088 3.6068,-10.6172 3.6068,-3.7084 9.906,-3.7084 3.9116,0 6.9088,1.6764 2.9972,1.6764 4.7244,4.8768 1.7272,3.1496 1.7272,7.7724 z m -19.1516,0 q 0,4.1148 1.3208,6.2484 1.3716,2.082799 4.4196,2.082799 2.9972,0 4.318,-2.082799 1.3716,-2.1336 1.3716,-6.2484 0,-4.1148 -1.3716,-6.1468 -1.3208,-2.0828 -4.3688,-2.0828 -2.9972,0 -4.3688,2.0828 -1.3208,2.032 -1.3208,6.1468 z"
           style="font-weight:bold;font-family:'Noto Sans';-inkscape-font-specification:'Noto Sans Bold';fill:url(#linearGradient669)"
           id="path584" />
        <path
           d="m 219.36189,52.009399 q 0,4.216399 -2.9972,6.502399 -2.9464,2.2352 -8.8392,2.2352 -2.8956,0 -4.9784,-0.4064 -2.0828,-0.3556 -4.1656,-1.2192 v -6.248399 q 2.2352,1.016 4.826,1.676399 2.5908,0.6604 4.572,0.6604 2.2352,0 3.1496,-0.6604 0.9652,-0.660399 0.9652,-1.727199 0,-0.7112 -0.4064,-1.27 -0.3556,-0.5588 -1.6256,-1.27 -1.27,-0.7112 -3.9624,-1.8288 -2.5908,-1.1176 -4.2672,-2.1844 -1.6764,-1.1176 -2.4892,-2.6416 -0.8128,-1.5748 -0.8128,-3.9116 0,-3.8608 2.9972,-5.7912 2.9972,-1.9304 7.9756,-1.9304 2.5908,0 4.9276,0.508 2.3368,0.508 4.826,1.6764 l -2.286,5.4356 q -2.032,-0.8636 -3.8608,-1.4224 -1.8288,-0.6096 -3.7084,-0.6096 -3.3528,0 -3.3528,1.8288 0,0.6604 0.4064,1.2192 0.4572,0.508 1.6764,1.1176 1.27,0.6096 3.7084,1.6256 2.3876,0.9652 4.1148,2.032 1.7272,1.016 2.6416,2.5908 0.9652,1.524 0.9652,4.0132 z"
           style="font-weight:bold;font-family:'Noto Sans';-inkscape-font-specification:'Noto Sans Bold';fill:url(#linearGradient671)"
           id="path586" />
        <path
           d="m 236.93868,54.701798 q 1.27,0 2.4384,-0.253999 1.1684,-0.254 2.3368,-0.6096 v 5.638799 q -1.2192,0.508 -3.048,0.8636 -1.778,0.4064 -3.9116,0.4064 -2.4892,0 -4.4704,-0.8128 -1.9304,-0.8128 -3.0988,-2.794 -1.1176,-2.032 -1.1176,-5.587999 v -13.3604 h -3.6068 v -3.2004 l 4.1656,-2.54 2.1844,-5.842 h 4.826 v 5.8928 h 7.7724 v 5.6896 h -7.7724 v 13.3604 q 0,1.5748 0.9144,2.3876 0.9144,0.761999 2.3876,0.761999 z"
           style="font-weight:bold;font-family:'Noto Sans';-inkscape-font-specification:'Noto Sans Bold';fill:url(#linearGradient673)"
           id="path588" />
        <path
           d="m 262.79588,31.994199 q 0.5588,0 1.3208,0.0508 0.762,0.0508 1.2192,0.1524 l -0.5588,7.112 q -0.3556,-0.1016 -1.0668,-0.1524 -0.6604,-0.1016 -1.1684,-0.1016 -1.9304,0 -3.7084,0.7112 -1.778,0.6604 -2.8956,2.1844 -1.0668,1.524 -1.0668,4.1656 v 14.122399 h -7.5692 V 32.502199 h 5.7404 l 1.1176,4.6736 h 0.3556 q 1.2192,-2.1336 3.3528,-3.6576 2.1336,-1.524 4.9276,-1.524 z"
           style="font-weight:bold;font-family:'Noto Sans';-inkscape-font-specification:'Noto Sans Bold';fill:url(#linearGradient675)"
           id="path590" />
        <path
           d="m 295.81589,32.502199 v 27.736799 h -5.7912 l -1.016,-3.556 h -0.4064 q -1.3208,2.1336 -3.6576,3.0988 -2.286,0.9652 -4.8768,0.9652 -4.4704,0 -7.1628,-2.3876 -2.6924,-2.4384 -2.6924,-7.772399 v -18.0848 h 7.5692 v 16.2052 q 0,2.9464 1.0668,4.4704 1.0668,1.523999 3.4036,1.523999 3.4544,0 4.7244,-2.336799 1.27,-2.3876 1.27,-6.8072 v -13.0556 z"
           style="font-weight:bold;font-family:'Noto Sans';-inkscape-font-specification:'Noto Sans Bold';fill:url(#linearGradient677)"
           id="path592" />
        <path
           d="m 336.30347,31.994199 q 4.7244,0 7.112,2.4384 2.4384,2.3876 2.4384,7.7216 v 18.084799 h -7.5692 V 44.033799 q 0,-5.9944 -4.1656,-5.9944 -2.9972,0 -4.2672,2.1336 -1.27,2.1336 -1.27,6.1468 v 13.919199 h -7.5692 V 44.033799 q 0,-5.9944 -4.1656,-5.9944 -3.1496,0 -4.3688,2.3876 -1.1684,2.3368 -1.1684,6.7564 v 13.055599 h -7.5692 V 32.502199 h 5.7912 l 1.016,3.556 h 0.4064 q 1.27,-2.1336 3.4544,-3.0988 2.2352,-0.9652 4.6228,-0.9652 3.048,0 5.1816,1.016 2.1336,0.9652 3.2512,3.048 h 0.6604 q 1.27,-2.1336 3.5052,-3.0988 2.286,-0.9652 4.6736,-0.9652 z"
           style="font-weight:bold;font-family:'Noto Sans';-inkscape-font-specification:'Noto Sans Bold';fill:url(#linearGradient679)"
           id="path594" />
      </g>
    </g>
  </g>
</svg>
